<svg width="107" height="33" viewBox="0 0 107 33" fill="none" xmlns="http://www.w3.org/2000/svg">
<rect x="13.3257" width="2.26432" height="32" rx="1.13216" fill="url(#paint0_linear_427_1012)"/>
<rect width="2.26305" height="32.018" rx="1.13153" transform="matrix(-0.500281 -0.865863 0.866188 -0.499719 1.13208 24.9958)" fill="url(#paint1_linear_427_1012)"/>
<rect width="2.26305" height="32.018" rx="1.13153" transform="matrix(-0.500281 0.865863 -0.866188 -0.499719 28.8665 23.0807)" fill="url(#paint2_linear_427_1012)"/>
<ellipse cx="27.0166" cy="1.84554" rx="1.84692" ry="1.84554" fill="#FAFBFC"/>
<ellipse cx="27.0166" cy="1.84554" rx="1.84692" ry="1.84554" fill="url(#paint3_radial_427_1012)"/>
<ellipse cx="1.84692" cy="30.1724" rx="1.84692" ry="1.84554" fill="#FAFBFC"/>
<ellipse cx="1.84692" cy="30.1724" rx="1.84692" ry="1.84554" fill="url(#paint4_radial_427_1012)"/>
<path d="M47.3491 14.7536H45.4897C45.4367 14.4486 45.3389 14.1785 45.1964 13.9432C45.0539 13.7045 44.8766 13.5024 44.6644 13.3366C44.4523 13.1709 44.2104 13.0466 43.9386 12.9638C43.6701 12.8776 43.3801 12.8345 43.0686 12.8345C42.5151 12.8345 42.0245 12.9737 41.597 13.2521C41.1694 13.5272 40.8347 13.9316 40.5927 14.4652C40.3508 14.9955 40.2298 15.6435 40.2298 16.4091C40.2298 17.188 40.3508 17.8442 40.5927 18.3778C40.838 18.9081 41.1727 19.3092 41.597 19.581C42.0245 19.8494 42.5134 19.9837 43.0636 19.9837C43.3685 19.9837 43.6535 19.9439 43.9187 19.8643C44.1872 19.7815 44.4275 19.6605 44.6396 19.5014C44.855 19.3423 45.0357 19.1468 45.1815 18.9148C45.3306 18.6828 45.4334 18.4176 45.4897 18.1193L47.3491 18.1293C47.2795 18.6132 47.1287 19.0672 46.8967 19.4915C46.668 19.9157 46.368 20.2902 45.9968 20.6151C45.6256 20.9366 45.1914 21.1884 44.6943 21.3707C44.1971 21.5497 43.6453 21.6392 43.0387 21.6392C42.1438 21.6392 41.3451 21.4321 40.6424 21.0178C39.9398 20.6035 39.3863 20.0052 38.9819 19.223C38.5776 18.4408 38.3754 17.5028 38.3754 16.4091C38.3754 15.312 38.5792 14.3741 38.9869 13.5952C39.3946 12.813 39.9497 12.2147 40.6524 11.8004C41.355 11.3861 42.1505 11.179 43.0387 11.179C43.6055 11.179 44.1325 11.2585 44.6197 11.4176C45.1069 11.5767 45.5411 11.8104 45.9223 12.1186C46.3034 12.4235 46.6166 12.7981 46.8619 13.2422C47.1105 13.683 47.2729 14.1868 47.3491 14.7536ZM50.7584 17.0256V21.5H48.9587V11.3182H50.7186V15.1612H50.8081C50.9871 14.7304 51.2638 14.3906 51.6383 14.142C52.0162 13.8902 52.4968 13.7642 53.0801 13.7642C53.6104 13.7642 54.0728 13.8752 54.4672 14.0973C54.8616 14.3194 55.1665 14.6442 55.3819 15.0717C55.6007 15.4993 55.7101 16.0213 55.7101 16.6378V21.5H53.9104V16.9162C53.9104 16.4025 53.7778 16.0031 53.5126 15.718C53.2508 15.4297 52.8829 15.2855 52.4089 15.2855C52.0908 15.2855 51.8057 15.3551 51.5538 15.4943C51.3052 15.6302 51.1097 15.8274 50.9672 16.0859C50.828 16.3445 50.7584 16.6577 50.7584 17.0256ZM59.742 21.6541C59.2581 21.6541 58.8223 21.5679 58.4345 21.3956C58.05 21.2199 57.7451 20.9614 57.5197 20.62C57.2977 20.2786 57.1866 19.8577 57.1866 19.3572C57.1866 18.9264 57.2662 18.5701 57.4253 18.2884C57.5844 18.0066 57.8015 17.7812 58.0765 17.6122C58.3516 17.4432 58.6615 17.3156 59.0062 17.2294C59.3542 17.1399 59.7139 17.0753 60.0851 17.0355C60.5325 16.9891 60.8954 16.9477 61.1739 16.9112C61.4523 16.8714 61.6544 16.8118 61.7804 16.7322C61.9096 16.6494 61.9743 16.5218 61.9743 16.3494V16.3196C61.9743 15.9451 61.8632 15.6551 61.6412 15.4496C61.4191 15.2441 61.0993 15.1413 60.6817 15.1413C60.2408 15.1413 59.8912 15.2375 59.6327 15.4297C59.3774 15.6219 59.2051 15.849 59.1156 16.1108L57.4352 15.8722C57.5678 15.4081 57.7865 15.0204 58.0915 14.7088C58.3964 14.3939 58.7693 14.1586 59.2101 14.0028C59.6509 13.8438 60.1381 13.7642 60.6717 13.7642C61.0396 13.7642 61.4059 13.8073 61.7704 13.8935C62.135 13.9796 62.4681 14.1222 62.7697 14.321C63.0713 14.5166 63.3133 14.7834 63.4956 15.1214C63.6812 15.4595 63.774 15.8821 63.774 16.3892V21.5H62.0439V20.451H61.9842C61.8748 20.6631 61.7207 20.862 61.5219 21.0476C61.3263 21.2299 61.0794 21.3774 60.7811 21.4901C60.4861 21.5994 60.1398 21.6541 59.742 21.6541ZM60.2094 20.3317C60.5706 20.3317 60.8838 20.2604 61.149 20.1179C61.4141 19.9721 61.618 19.7798 61.7605 19.5412C61.9063 19.3026 61.9792 19.0424 61.9792 18.7607V17.8608C61.9229 17.9072 61.8268 17.9503 61.6909 17.9901C61.5583 18.0298 61.4092 18.0646 61.2435 18.0945C61.0777 18.1243 60.9137 18.1508 60.7513 18.174C60.5889 18.1972 60.448 18.2171 60.3287 18.2337C60.0602 18.2701 59.8199 18.3298 59.6078 18.4126C59.3957 18.4955 59.2283 18.6115 59.1057 18.7607C58.983 18.9065 58.9217 19.0954 58.9217 19.3274C58.9217 19.6589 59.0427 19.9091 59.2846 20.0781C59.5266 20.2472 59.8348 20.3317 60.2094 20.3317ZM67.3834 17.0256V21.5H65.5837V13.8636H67.3038V15.1612H67.3933C67.569 14.7337 67.849 14.3939 68.2335 14.142C68.6213 13.8902 69.1002 13.7642 69.6703 13.7642C70.1973 13.7642 70.6563 13.8769 71.0474 14.1023C71.4418 14.3277 71.7468 14.6541 71.9622 15.0817C72.181 15.5092 72.2887 16.0279 72.2854 16.6378V21.5H70.4856V16.9162C70.4856 16.4058 70.3531 16.0064 70.0879 15.718C69.8261 15.4297 69.4631 15.2855 68.9991 15.2855C68.6843 15.2855 68.4042 15.3551 68.1589 15.4943C67.917 15.6302 67.7264 15.8274 67.5872 16.0859C67.4513 16.3445 67.3834 16.6577 67.3834 17.0256ZM75.9146 17.0256V21.5H74.1149V13.8636H75.8351V15.1612H75.9246C76.1002 14.7337 76.3803 14.3939 76.7648 14.142C77.1525 13.8902 77.6315 13.7642 78.2015 13.7642C78.7285 13.7642 79.1876 13.8769 79.5787 14.1023C79.9731 14.3277 80.278 14.6541 80.4935 15.0817C80.7122 15.5092 80.8199 16.0279 80.8166 16.6378V21.5H79.0169V16.9162C79.0169 16.4058 78.8843 16.0064 78.6192 15.718C78.3573 15.4297 77.9944 15.2855 77.5304 15.2855C77.2155 15.2855 76.9355 15.3551 76.6902 15.4943C76.4482 15.6302 76.2577 15.8274 76.1185 16.0859C75.9826 16.3445 75.9146 16.6577 75.9146 17.0256ZM86.0268 21.6491C85.2612 21.6491 84.6 21.4901 84.0432 21.1719C83.4897 20.8504 83.0638 20.3963 82.7655 19.8097C82.4672 19.2197 82.318 18.5253 82.318 17.7266C82.318 16.9411 82.4672 16.2517 82.7655 15.6584C83.0671 15.0618 83.488 14.5978 84.0283 14.2663C84.5685 13.9316 85.2032 13.7642 85.9324 13.7642C86.403 13.7642 86.8471 13.8404 87.2648 13.9929C87.6857 14.142 88.0569 14.3741 88.3784 14.6889C88.7032 15.0038 88.9584 15.4048 89.144 15.892C89.3296 16.3759 89.4224 16.9527 89.4224 17.6222V18.174H83.1632V16.9609H87.6973C87.694 16.6162 87.6194 16.3097 87.4736 16.0412C87.3277 15.7694 87.1239 15.5556 86.8621 15.3999C86.6035 15.2441 86.3019 15.1662 85.9572 15.1662C85.5893 15.1662 85.2662 15.2557 84.9878 15.4347C84.7094 15.6103 84.4923 15.8423 84.3365 16.1307C84.184 16.4157 84.1061 16.7289 84.1028 17.0703V18.1293C84.1028 18.5734 84.184 18.9545 84.3464 19.2727C84.5088 19.5876 84.7359 19.8295 85.0275 19.9986C85.3192 20.1643 85.6606 20.2472 86.0517 20.2472C86.3135 20.2472 86.5505 20.2107 86.7626 20.1378C86.9748 20.0616 87.1587 19.9505 87.3145 19.8047C87.4703 19.6589 87.5879 19.4782 87.6675 19.2628L89.3479 19.4517C89.2418 19.8958 89.0396 20.2836 88.7413 20.6151C88.4463 20.9432 88.0685 21.1984 87.6078 21.3807C87.1471 21.5597 86.6201 21.6491 86.0268 21.6491ZM92.7447 11.3182V21.5H90.945V11.3182H92.7447ZM97.8642 19.6108V18.1442L102.185 11.3182H103.408V13.4062H102.662L99.7534 18.0149V18.0945H105.784V19.6108H97.8642ZM102.721 21.5V19.1634L102.741 18.5071V11.3182H104.481V21.5H102.721Z" fill="url(#paint5_linear_427_1012)"/>
<defs>
<linearGradient id="paint0_linear_427_1012" x1="14.4578" y1="0" x2="14.4578" y2="32" gradientUnits="userSpaceOnUse">
<stop stop-color="#8F00FF"/>
<stop offset="0.239583" stop-color="#E5F344"/>
<stop offset="0.473958" stop-color="#37FF4B"/>
<stop offset="0.71875" stop-color="#4D89FF"/>
<stop offset="1" stop-color="#FB2BFF"/>
</linearGradient>
<linearGradient id="paint1_linear_427_1012" x1="1.13153" y1="0" x2="1.13153" y2="32.018" gradientUnits="userSpaceOnUse">
<stop stop-color="#8F00FF"/>
<stop offset="0.239583" stop-color="#E5F344"/>
<stop offset="0.473958" stop-color="#37FF4B"/>
<stop offset="0.71875" stop-color="#4D89FF"/>
<stop offset="1" stop-color="#FB2BFF"/>
</linearGradient>
<linearGradient id="paint2_linear_427_1012" x1="1.13153" y1="0" x2="1.13153" y2="32.018" gradientUnits="userSpaceOnUse">
<stop stop-color="#8F00FF"/>
<stop offset="0.239583" stop-color="#E5F344"/>
<stop offset="0.473958" stop-color="#37FF4B"/>
<stop offset="0.71875" stop-color="#4D89FF"/>
<stop offset="1" stop-color="#FB2BFF"/>
</linearGradient>
<radialGradient id="paint3_radial_427_1012" cx="0" cy="0" r="1" gradientUnits="userSpaceOnUse" gradientTransform="translate(27.0166 1.84554) rotate(90) scale(1.84554 1.84692)">
<stop offset="0.359375" stop-color="#E5F344"/>
<stop offset="1" stop-color="#37FF4B"/>
</radialGradient>
<radialGradient id="paint4_radial_427_1012" cx="0" cy="0" r="1" gradientUnits="userSpaceOnUse" gradientTransform="translate(1.84692 30.1724) rotate(90) scale(1.84554 1.84692)">
<stop offset="0.333333" stop-color="#37FF4B"/>
<stop offset="0.78125" stop-color="#E5F344"/>
</radialGradient>
<linearGradient id="paint5_linear_427_1012" x1="99.4583" y1="9.02631" x2="51.0659" y2="61.0142" gradientUnits="userSpaceOnUse">
<stop stop-color="#FB2BFF"/>
<stop offset="0.239583" stop-color="#E5F344"/>
<stop offset="0.473958" stop-color="#37FF4B"/>
<stop offset="0.71875" stop-color="#4D89FF"/>
<stop offset="1" stop-color="#8F00FF"/>
</linearGradient>
</defs>
</svg>
